REM DIRINDEX 1\2,1\3,1\4,1\5\6,1\5\7,1\8
REM DIRNAME folder01,folder02,folder03,folder04,folder05,folder06,folder07,folder08
TITLE ""
FILE "149 【149】Unit9 (1681 call for ～_1692 bring up).mp3" MP3
  TRACK 01 AUDIO
    TITLE "0:"
    INDEX 01 00:00:00
  TRACK 02 AUDIO
    TITLE "8:cjc115_5847"
    INDEX 01 00:00:01
  TRACK 03 AUDIO
    TITLE "0:"
    INDEX 01 00:01:40
  TRACK 04 AUDIO
    TITLE "2:cjc115_5848"
    INDEX 01 00:02:12
  TRACK 05 AUDIO
    TITLE "0:"
    INDEX 01 00:03:37
  TRACK 06 AUDIO
    TITLE "3:cjc115_5849"
    INDEX 01 00:03:47
  TRACK 07 AUDIO
    TITLE "0:"
    INDEX 01 00:05:20
  TRACK 08 AUDIO
    TITLE "4:cjc115_5850"
    INDEX 01 00:05:26
  TRACK 09 AUDIO
    TITLE "0:"
    INDEX 01 00:08:58
  TRACK 10 AUDIO
    TITLE "2:cjc115_5851"
    INDEX 01 00:09:63
  TRACK 11 AUDIO
    TITLE "0:"
    INDEX 01 00:11:07
  TRACK 12 AUDIO
    TITLE "3:cjc115_5852"
    INDEX 01 00:11:15
  TRACK 13 AUDIO
    TITLE "0:"
    INDEX 01 00:13:73
  TRACK 14 AUDIO
    TITLE "4:cjc115_5853"
    INDEX 01 00:14:06
  TRACK 15 AUDIO
    TITLE "0:"
    INDEX 01 00:18:42
  TRACK 16 AUDIO
    TITLE "2:cjc115_5854"
    INDEX 01 00:19:44
  TRACK 17 AUDIO
    TITLE "0:"
    INDEX 01 00:20:63
  TRACK 18 AUDIO
    TITLE "3:cjc115_5855"
    INDEX 01 00:20:73
  TRACK 19 AUDIO
    TITLE "0:"
    INDEX 01 00:22:13
  TRACK 20 AUDIO
    TITLE "4:cjc115_5856"
    INDEX 01 00:22:23
  TRACK 21 AUDIO
    TITLE "0:"
    INDEX 01 00:25:45
  TRACK 22 AUDIO
    TITLE "2:cjc115_5857"
    INDEX 01 00:26:50
  TRACK 23 AUDIO
    TITLE "0:"
    INDEX 01 00:28:29
  TRACK 24 AUDIO
    TITLE "3:cjc115_5858"
    INDEX 01 00:28:31
  TRACK 25 AUDIO
    TITLE "0:"
    INDEX 01 00:31:33
  TRACK 26 AUDIO
    TITLE "4:cjc115_5859"
    INDEX 01 00:31:37
  TRACK 27 AUDIO
    TITLE "0:"
    INDEX 01 00:34:45
  TRACK 28 AUDIO
    TITLE "2:cjc115_5860"
    INDEX 01 00:35:55
  TRACK 29 AUDIO
    TITLE "0:"
    INDEX 01 00:37:10
  TRACK 30 AUDIO
    TITLE "3:cjc115_5861"
    INDEX 01 00:37:18
  TRACK 31 AUDIO
    TITLE "0:"
    INDEX 01 00:38:73
  TRACK 32 AUDIO
    TITLE "4:cjc115_5862"
    INDEX 01 00:39:05
  TRACK 33 AUDIO
    TITLE "0:"
    INDEX 01 00:42:04
  TRACK 34 AUDIO
    TITLE "2:cjc115_5863"
    INDEX 01 00:43:15
  TRACK 35 AUDIO
    TITLE "0:"
    INDEX 01 00:44:48
  TRACK 36 AUDIO
    TITLE "3:cjc115_5864"
    INDEX 01 00:44:60
  TRACK 37 AUDIO
    TITLE "0:"
    INDEX 01 00:47:13
  TRACK 38 AUDIO
    TITLE "4:cjc115_5865"
    INDEX 01 00:47:17
  TRACK 39 AUDIO
    TITLE "0:"
    INDEX 01 00:50:72
  TRACK 40 AUDIO
    TITLE "2:cjc115_5866"
    INDEX 01 00:52:06
  TRACK 41 AUDIO
    TITLE "0:"
    INDEX 01 00:53:39
  TRACK 42 AUDIO
    TITLE "3:cjc115_5867"
    INDEX 01 00:53:47
  TRACK 43 AUDIO
    TITLE "0:"
    INDEX 01 00:57:19
  TRACK 44 AUDIO
    TITLE "4:cjc115_5868"
    INDEX 01 00:57:25
  TRACK 45 AUDIO
    TITLE "0:"
    INDEX 01 01:01:33
  TRACK 46 AUDIO
    TITLE "2:cjc115_5869"
    INDEX 01 01:02:36
  TRACK 47 AUDIO
    TITLE "0:"
    INDEX 01 01:03:69
  TRACK 48 AUDIO
    TITLE "3:cjc115_5870"
    INDEX 01 01:04:01
  TRACK 49 AUDIO
    TITLE "0:"
    INDEX 01 01:05:36
  TRACK 50 AUDIO
    TITLE "4:cjc115_5871"
    INDEX 01 01:05:42
  TRACK 51 AUDIO
    TITLE "0:"
    INDEX 01 01:08:54
  TRACK 52 AUDIO
    TITLE "2:cjc115_5872"
    INDEX 01 01:09:59
  TRACK 53 AUDIO
    TITLE "0:"
    INDEX 01 01:11:27
  TRACK 54 AUDIO
    TITLE "3:cjc115_5873"
    INDEX 01 01:11:37
  TRACK 55 AUDIO
    TITLE "0:"
    INDEX 01 01:14:43
  TRACK 56 AUDIO
    TITLE "4:cjc115_5874"
    INDEX 01 01:14:51
  TRACK 57 AUDIO
    TITLE "0:"
    INDEX 01 01:18:51
  TRACK 58 AUDIO
    TITLE "2:cjc115_5875"
    INDEX 01 01:19:62
  TRACK 59 AUDIO
    TITLE "0:"
    INDEX 01 01:21:25
  TRACK 60 AUDIO
    TITLE "3:cjc115_5876"
    INDEX 01 01:21:33
  TRACK 61 AUDIO
    TITLE "0:"
    INDEX 01 01:24:06
  TRACK 62 AUDIO
    TITLE "4:cjc115_5877"
    INDEX 01 01:24:16
  TRACK 63 AUDIO
    TITLE "0:"
    INDEX 01 01:28:61
  TRACK 64 AUDIO
    TITLE "2:cjc115_5878"
    INDEX 01 01:29:62
  TRACK 65 AUDIO
    TITLE "0:"
    INDEX 01 01:31:06
  TRACK 66 AUDIO
    TITLE "3:cjc115_5879"
    INDEX 01 01:31:12
  TRACK 67 AUDIO
    TITLE "0:"
    INDEX 01 01:33:54
  TRACK 68 AUDIO
    TITLE "4:cjc115_5880"
    INDEX 01 01:33:64
  TRACK 69 AUDIO
    TITLE "0:"
    INDEX 01 01:37:73
  TRACK 70 AUDIO
    TITLE "2:cjc115_5881"
    INDEX 01 01:39:02
  TRACK 71 AUDIO
    TITLE "0:"
    INDEX 01 01:39:74
  TRACK 72 AUDIO
    TITLE "3:cjc115_5882"
    INDEX 01 01:40:21
  TRACK 73 AUDIO
    TITLE "0:"
    INDEX 01 01:43:09
  TRACK 74 AUDIO
    TITLE "4:cjc115_5883"
    INDEX 01 01:43:19
  TRACK 75 AUDIO
    TITLE "0:"
    INDEX 01 01:45:61
